# xmcd
#
# Track frame offsets:
#	150
#	15570
#	32138
#	47363
#	58853
#	76758
#	92647
#	108434
#	125368
#	139163
#	153724
#	171700
#
# Disc length: 2489 seconds
#
# Revision: 0
# Processed by: cddbd v1.5.2PL0 Copyright (c) Steve Scherf et al.
# Submitted via: dBpowerAMP V4.0
#
DISCID=9b09b70c
DTITLE=Olivia Newton-John - Let Me Be There (International)
DYEAR=1998
DGENRE=Country
TTITLE0=Take Me Home, Country Roads
TTITLE1=Amoureuse
TTITLE2=Brotherly Love
TTITLE3=Heartbreaker
TTITLE4=Rosewater
TTITLE5=You Ain't Got The Right
TTITLE6=Feeling Best
TTITLE7=Being On The Losing End
TTITLE8=Let Me Be There
TTITLE9=Music Makes My Day
TTITLE10=Leaving
TTITLE11=If We Try
EXTD=
EXTT0=
EXTT1=
EXTT2=
EXTT3=
EXTT4=
EXTT5=
EXTT6=
EXTT7=
EXTT8=
EXTT9=
EXTT10=
EXTT11=
PLAYORDER=
